<svg width="70" height="80" viewBox="0 0 70 80" fill="none" xmlns="http://www.w3.org/2000/svg">
<path d="M70 0L63.6228 71.9916L34.9572 80L6.37042 72.0029L0 0H70Z" fill="#264DE4"/>
<path d="M58.1633 67.4075L63.613 5.88731H35V73.8788L58.1633 67.4075Z" fill="#2965F1"/>
<path d="M14.6041 32.5922L15.3895 41.4229H35V32.5922H14.6041Z" fill="#EBEBEB"/>
<path d="M35 14.7183H34.9697H13.0259L13.8225 23.5492H35V14.7183Z" fill="#EBEBEB"/>
<path d="M35 64.7147V55.5269L34.9616 55.5372L25.2019 52.8815L24.578 45.8385H15.781L17.0088 59.7042L34.9597 64.7259L35 64.7147Z" fill="#EBEBEB"/>
<path d="M45.7607 41.4229L44.7435 52.8759L34.9697 55.5342V64.7217L52.9349 59.7042L55.126 34.9635L55.3398 32.5922L56.9218 14.7183H34.9697L34.9697 23.5492H47.318L46.5206 32.5922H34.9697V41.4229H45.7607Z" fill="white"/>
</svg>
