<svg width="81" height="81" viewBox="0 0 81 81" fill="none" xmlns="http://www.w3.org/2000/svg">
<mask id="mask0_182_57" style="mask-type:luminance" maskUnits="userSpaceOnUse" x="0" y="0" width="81" height="81">
<path d="M0.299683 0.739868H80.2997V80.7399H0.299683V0.739868Z" fill="white"/>
</mask>
<g mask="url(#mask0_182_57)">
<path d="M78.7926 37.1778L43.8628 2.25051C43.3843 1.77171 42.8161 1.39189 42.1908 1.13275C41.5655 0.873615 40.8952 0.740234 40.2183 0.740234C39.5414 0.740234 38.8711 0.873615 38.2458 1.13275C37.6205 1.39189 37.0523 1.77171 36.5738 2.25051L29.3232 9.50464L38.5223 18.7038C39.6038 18.3365 40.7665 18.2791 41.879 18.5382C42.9914 18.7973 44.0091 19.3625 44.817 20.1699C45.6294 20.9831 46.1965 22.0086 46.4535 23.129C46.7104 24.2494 46.6469 25.4195 46.2701 26.5055L55.1392 35.3721C56.2255 34.9948 57.3961 34.9312 58.5168 35.1887C59.6375 35.4462 60.663 36.0142 61.4757 36.8278C62.045 37.3969 62.4966 38.0727 62.8047 38.8164C63.1128 39.5601 63.2713 40.3572 63.2713 41.1622C63.2713 41.9672 63.1128 42.7643 62.8047 43.5081C62.4966 44.2518 62.045 44.9275 61.4757 45.4967C60.3248 46.6464 58.7646 47.2922 57.1378 47.2922C55.511 47.2922 53.9507 46.6464 52.7998 45.4967C51.9449 44.6403 51.3624 43.5501 51.1256 42.3634C50.8889 41.1767 51.0086 39.9465 51.4695 38.8276L43.1985 30.5592V52.3224C44.0715 52.7537 44.8292 53.3867 45.4088 54.1691C45.9884 54.9515 46.3733 55.8607 46.5316 56.8214C46.6899 57.7822 46.617 58.7668 46.319 59.6938C46.021 60.6208 45.5064 61.4634 44.8179 62.1519C44.2487 62.7212 43.573 63.1728 42.8292 63.4809C42.0855 63.789 41.2884 63.9475 40.4834 63.9475C39.6784 63.9475 38.8813 63.789 38.1376 63.4809C37.3939 63.1728 36.7181 62.7212 36.149 62.1519C35.5795 61.5827 35.1279 60.9069 34.8197 60.1631C34.5115 59.4193 34.3529 58.6221 34.3529 57.817C34.3529 57.0119 34.5115 56.2147 34.8197 55.4709C35.1279 54.7271 35.5795 54.0513 36.149 53.4821C36.7225 52.9074 37.4043 52.452 38.1549 52.1422V30.1787C37.4074 29.8708 36.7281 29.4183 36.156 28.8471C35.5839 28.2758 35.1303 27.5972 34.8212 26.8502C34.5122 26.1031 34.3538 25.3024 34.3551 24.4939C34.3565 23.6855 34.5175 22.8853 34.8291 22.1393L25.7588 13.0673L1.8059 37.0141C0.840681 37.9812 0.298584 39.2918 0.298584 40.6581C0.298584 42.0245 0.840681 43.335 1.8059 44.3022L36.7375 79.2338C37.7046 80.1987 39.0149 80.7407 40.3811 80.7407C41.7473 80.7407 43.0576 80.1987 44.0247 79.2338L78.7926 44.4658C79.7579 43.4987 80.3 42.1882 80.3 40.8218C80.3 39.4554 79.7579 38.1449 78.7926 37.1778Z" fill="#F03C2E"/>
</g>
</svg>
