<svg width="80" height="80" viewBox="0 0 80 80" fill="none" xmlns="http://www.w3.org/2000/svg">
<g filter="url(#filter0_i_193_37)">
<path d="M40 80C62.0914 80 80 62.0914 80 40C80 17.9086 62.0914 0 40 0C17.9086 0 0 17.9086 0 40C0 62.0914 17.9086 80 40 80Z" fill="black"/>
<path d="M40 80C62.0914 80 80 62.0914 80 40C80 17.9086 62.0914 0 40 0C17.9086 0 0 17.9086 0 40C0 62.0914 17.9086 80 40 80Z" fill="url(#paint0_linear_193_37)"/>
<path d="M2.85714 40.0243C2.85714 56.4707 13.4893 70.3614 28.2536 75.2864C30.1107 75.6121 30.8071 74.4972 30.8071 73.5222C30.8071 72.6386 30.7607 69.7121 30.7607 66.5993C21.4286 68.3171 19.0143 64.3214 18.2714 62.2314C17.8536 61.1629 16.0429 57.8643 14.4643 56.9814C13.1643 56.2843 11.3071 54.5657 14.4179 54.5193C17.3429 54.4729 19.4321 57.2136 20.1286 58.3286C23.4714 63.95 28.8107 62.3714 30.9464 61.395C31.2714 58.9793 32.2464 57.3521 33.3143 56.4236C25.05 55.495 16.4143 52.2893 16.4143 38.0736C16.4143 34.0307 17.8536 30.6857 20.2214 28.0843C19.85 27.1557 18.55 23.3457 20.5929 18.2343C20.5929 18.2343 23.7036 17.2593 30.8071 22.0443C33.7786 21.2086 36.9357 20.79 40.0929 20.79C43.25 20.79 46.4071 21.2086 49.3786 22.0443C56.4821 17.2129 59.5929 18.235 59.5929 18.235C61.6357 23.345 60.3357 27.1543 59.9643 28.0836C62.3321 30.685 63.7714 33.9836 63.7714 38.0721C63.7714 52.335 55.0893 55.4936 46.825 56.4236C48.1714 57.585 49.3321 59.815 49.3321 63.2993C49.3321 68.2707 49.2857 72.2657 49.2857 73.5207C49.2857 74.4957 49.9821 75.6564 51.8393 75.285C66.5107 70.3621 77.1429 56.425 77.1429 40.025C77.1429 19.4886 60.5214 2.85714 40 2.85714C19.4786 2.85714 2.85714 19.4893 2.85714 40.0243Z" fill="black"/>
<path d="M2.85714 40.0243C2.85714 56.4707 13.4893 70.3614 28.2536 75.2864C30.1107 75.6121 30.8071 74.4972 30.8071 73.5222C30.8071 72.6386 30.7607 69.7121 30.7607 66.5993C21.4286 68.3171 19.0143 64.3214 18.2714 62.2314C17.8536 61.1629 16.0429 57.8643 14.4643 56.9814C13.1643 56.2843 11.3071 54.5657 14.4179 54.5193C17.3429 54.4729 19.4321 57.2136 20.1286 58.3286C23.4714 63.95 28.8107 62.3714 30.9464 61.395C31.2714 58.9793 32.2464 57.3521 33.3143 56.4236C25.05 55.495 16.4143 52.2893 16.4143 38.0736C16.4143 34.0307 17.8536 30.6857 20.2214 28.0843C19.85 27.1557 18.55 23.3457 20.5929 18.2343C20.5929 18.2343 23.7036 17.2593 30.8071 22.0443C33.7786 21.2086 36.9357 20.79 40.0929 20.79C43.25 20.79 46.4071 21.2086 49.3786 22.0443C56.4821 17.2129 59.5929 18.235 59.5929 18.235C61.6357 23.345 60.3357 27.1543 59.9643 28.0836C62.3321 30.685 63.7714 33.9836 63.7714 38.0721C63.7714 52.335 55.0893 55.4936 46.825 56.4236C48.1714 57.585 49.3321 59.815 49.3321 63.2993C49.3321 68.2707 49.2857 72.2657 49.2857 73.5207C49.2857 74.4957 49.9821 75.6564 51.8393 75.285C66.5107 70.3621 77.1429 56.425 77.1429 40.025C77.1429 19.4886 60.5214 2.85714 40 2.85714C19.4786 2.85714 2.85714 19.4893 2.85714 40.0243Z" fill="url(#paint1_linear_193_37)"/>
<path d="M2.85714 40.0243C2.85714 56.4707 13.4893 70.3614 28.2536 75.2864C30.1107 75.6121 30.8071 74.4972 30.8071 73.5222C30.8071 72.6386 30.7607 69.7121 30.7607 66.5993C21.4286 68.3171 19.0143 64.3214 18.2714 62.2314C17.8536 61.1629 16.0429 57.8643 14.4643 56.9814C13.1643 56.2843 11.3071 54.5657 14.4179 54.5193C17.3429 54.4729 19.4321 57.2136 20.1286 58.3286C23.4714 63.95 28.8107 62.3714 30.9464 61.395C31.2714 58.9793 32.2464 57.3521 33.3143 56.4236C25.05 55.495 16.4143 52.2893 16.4143 38.0736C16.4143 34.0307 17.8536 30.6857 20.2214 28.0843C19.85 27.1557 18.55 23.3457 20.5929 18.2343C20.5929 18.2343 23.7036 17.2593 30.8071 22.0443C33.7786 21.2086 36.9357 20.79 40.0929 20.79C43.25 20.79 46.4071 21.2086 49.3786 22.0443C56.4821 17.2129 59.5929 18.235 59.5929 18.235C61.6357 23.345 60.3357 27.1543 59.9643 28.0836C62.3321 30.685 63.7714 33.9836 63.7714 38.0721C63.7714 52.335 55.0893 55.4936 46.825 56.4236C48.1714 57.585 49.3321 59.815 49.3321 63.2993C49.3321 68.2707 49.2857 72.2657 49.2857 73.5207C49.2857 74.4957 49.9821 75.6564 51.8393 75.285C66.5107 70.3621 77.1429 56.425 77.1429 40.025C77.1429 19.4886 60.5214 2.85714 40 2.85714C19.4786 2.85714 2.85714 19.4893 2.85714 40.0243Z" fill="black"/>
</g>
<defs>
<filter id="filter0_i_193_37" x="0" y="0" width="80" height="80" filterUnits="userSpaceOnUse" color-interpolation-filters="sRGB">
<feFlood flood-opacity="0" result="BackgroundImageFix"/>
<feBlend mode="normal" in="SourceGraphic" in2="BackgroundImageFix" result="shape"/>
<feColorMatrix in="SourceAlpha" type="matrix" values="0 0 0 0 0 0 0 0 0 0 0 0 0 0 0 0 0 0 127 0" result="hardAlpha"/>
<feOffset/>
<feGaussianBlur stdDeviation="1"/>
<feComposite in2="hardAlpha" operator="arithmetic" k2="-1" k3="1"/>
<feColorMatrix type="matrix" values="0 0 0 0 0.258824 0 0 0 0 0.137255 0 0 0 0 0.431373 0 0 0 0.70355 0"/>
<feBlend mode="normal" in2="shape" result="effect1_innerShadow_193_37"/>
</filter>
<linearGradient id="paint0_linear_193_37" x1="4000" y1="0" x2="4000" y2="8000" gradientUnits="userSpaceOnUse">
<stop stop-color="#FEFEFE"/>
<stop offset="1" stop-color="#E0E0E0"/>
</linearGradient>
<linearGradient id="paint1_linear_193_37" x1="4000" y1="8000" x2="4000" y2="0" gradientUnits="userSpaceOnUse">
<stop stop-color="#492779"/>
<stop offset="1" stop-color="#892793"/>
</linearGradient>
</defs>
</svg>
